<svg width="680" height="380" viewBox="0 0 680 380" xmlns="http://www.w3.org/2000/svg">
<title>Logo Fast Money</title>
<desc>Logo Fast Money dengan karakter lembaran uang kartun tersenyum berwarna biru, aksen hijau pada koin, ditemani garis kecepatan. Background transparan.</desc>

<circle cx="340" cy="160" r="110" fill="#DCE7F9"/>

<line x1="150" y1="120" x2="185" y2="120" stroke="#1E5FBF" stroke-width="5" stroke-linecap="round" opacity="0.6"/>
<line x1="140" y1="150" x2="180" y2="150" stroke="#1E5FBF" stroke-width="5" stroke-linecap="round" opacity="0.8"/>
<line x1="150" y1="180" x2="185" y2="180" stroke="#1E5FBF" stroke-width="5" stroke-linecap="round" opacity="0.6"/>

<g transform="rotate(-8 340 160)">
<rect x="270" y="105" width="140" height="90" rx="10" fill="#2563EB" stroke="#123C8C" stroke-width="4"/>
<rect x="282" y="117" width="116" height="66" rx="6" fill="none" stroke="#93C5FD" stroke-width="2"/>
<circle cx="340" cy="150" r="24" fill="#93C5FD"/>
<text x="340" y="159" text-anchor="middle" font-size="24" font-weight="700" fill="#123C8C" font-family="Arial, sans-serif">$</text>

<circle cx="305" cy="140" r="7" fill="#0E1B12"/>
<circle cx="375" cy="140" r="7" fill="#0E1B12"/>
<circle cx="307" cy="138" r="2" fill="#ffffff"/>
<circle cx="377" cy="138" r="2" fill="#ffffff"/>
<path d="M292 160 Q305 172 318 160" fill="none" stroke="#0E1B12" stroke-width="3" stroke-linecap="round"/>
<path d="M362 160 Q375 172 388 160" fill="none" stroke="#0E1B12" stroke-width="3" stroke-linecap="round"/>
<path d="M320 168 Q340 180 360 168" fill="none" stroke="#0E1B12" stroke-width="3.5" stroke-linecap="round"/>
</g>

<circle cx="425" cy="110" r="16" fill="#22A559" stroke="#0E7A3D" stroke-width="3"/>
<text x="425" y="116" text-anchor="middle" font-size="14" font-weight="700" fill="#0E7A3D" font-family="Arial, sans-serif">¢</text>

<text x="340" y="300" text-anchor="middle" font-size="40" font-weight="700" fill="#1E5FBF" font-family="Arial, sans-serif">Fast Money</text>
<text x="340" y="326" text-anchor="middle" font-size="15" fill="#4B5563" font-family="Arial, sans-serif">Kelola uangmu, secepat kilat</text>
</svg>
