<svg width="400" height="400" viewBox="0 0 400 400" xmlns="http://www.w3.org/2000/svg">
<title>Ikon Fast Money</title>
<desc>Ikon persegi karakter lembaran uang kartun tersenyum berwarna biru dengan aksen hijau, untuk app icon.</desc>

<circle cx="200" cy="200" r="170" fill="#DCE7F9"/>

<line x1="60" y1="150" x2="105" y2="150" stroke="#1E5FBF" stroke-width="8" stroke-linecap="round" opacity="0.6"/>
<line x1="48" y1="195" x2="100" y2="195" stroke="#1E5FBF" stroke-width="8" stroke-linecap="round" opacity="0.8"/>
<line x1="60" y1="240" x2="105" y2="240" stroke="#1E5FBF" stroke-width="8" stroke-linecap="round" opacity="0.6"/>

<g transform="rotate(-8 200 200)">
<rect x="115" y="130" width="170" height="110" rx="14" fill="#2563EB" stroke="#123C8C" stroke-width="5"/>
<rect x="130" y="145" width="140" height="80" rx="8" fill="none" stroke="#93C5FD" stroke-width="2.5"/>
<circle cx="200" cy="185" r="30" fill="#93C5FD"/>
<text x="200" y="197" text-anchor="middle" font-size="30" font-weight="700" fill="#123C8C" font-family="Arial, sans-serif">$</text>

<circle cx="155" cy="172" r="9" fill="#0E1B12"/>
<circle cx="245" cy="172" r="9" fill="#0E1B12"/>
<circle cx="158" cy="169" r="2.5" fill="#ffffff"/>
<circle cx="248" cy="169" r="2.5" fill="#ffffff"/>
<path d="M138 198 Q155 213 172 198" fill="none" stroke="#0E1B12" stroke-width="4" stroke-linecap="round"/>
<path d="M228 198 Q245 213 262 198" fill="none" stroke="#0E1B12" stroke-width="4" stroke-linecap="round"/>
<path d="M175 208 Q200 224 225 208" fill="none" stroke="#0E1B12" stroke-width="4.5" stroke-linecap="round"/>
</g>

<circle cx="285" cy="120" r="22" fill="#22A559" stroke="#0E7A3D" stroke-width="4"/>
<text x="285" y="128" text-anchor="middle" font-size="19" font-weight="700" fill="#0E7A3D" font-family="Arial, sans-serif">¢</text>
</svg>
